<svg width="52" height="51" viewBox="0 0 52 51" fill="none" xmlns="http://www.w3.org/2000/svg">
<g filter="url(#filter0_d)">
<rect x="8" y="8.27924" width="32" height="30.1101" rx="8" fill="white"/>
</g>
<path fill-rule="evenodd" clip-rule="evenodd" d="M17 15.8067H31C31.2652 15.8067 31.5196 15.9059 31.7071 16.0823C31.8946 16.2588 32 16.4981 32 16.7477V29.9208C32 30.1704 31.8946 30.4097 31.7071 30.5862C31.5196 30.7626 31.2652 30.8618 31 30.8618H17C16.7348 30.8618 16.4804 30.7626 16.2929 30.5862C16.1054 30.4097 16 30.1704 16 29.9208V16.7477C16 16.4981 16.1054 16.2588 16.2929 16.0823C16.4804 15.9059 16.7348 15.8067 17 15.8067ZM14 16.7477C14 15.999 14.3161 15.281 14.8787 14.7516C15.4413 14.2222 16.2044 13.9248 17 13.9248H31C31.7957 13.9248 32.5587 14.2222 33.1213 14.7516C33.6839 15.281 34 15.999 34 16.7477V29.9208C34 30.6695 33.6839 31.3875 33.1213 31.9169C32.5587 32.4462 31.7957 32.7436 31 32.7436H17C16.2044 32.7436 15.4413 32.4462 14.8787 31.9169C14.3161 31.3875 14 30.6695 14 29.9208V16.7477ZM24 23.3342C21.239 23.3342 19 20.8069 19 17.6886H21C21 20.103 22.67 21.4524 24 21.4524C25.33 21.4524 27 20.103 27 17.6886H29C29 20.8069 26.761 23.3342 24 23.3342Z" fill="#55484C"/>
<g filter="url(#filter1_d)">
<ellipse cx="38" cy="10.1611" rx="8" ry="7.52752" fill="#FF985F"/>
</g>
<path d="M38.8062 10.2893C39.1556 10.3027 39.4222 10.44 39.6062 10.7013C39.7902 10.9627 39.8822 11.2813 39.8822 11.6573C39.8822 11.9907 39.8142 12.296 39.6782 12.5733C39.5422 12.8507 39.3329 13.072 39.0502 13.2373C38.7702 13.4027 38.4102 13.4853 37.9702 13.4853C37.4742 13.4853 37.0836 13.4 36.7982 13.2293C36.5129 13.0587 36.3102 12.8267 36.1902 12.5333C36.0702 12.2373 36.0102 11.9053 36.0102 11.5373V11.5213H37.0662V11.5373C37.0662 11.972 37.1476 12.2653 37.3102 12.4173C37.4729 12.5693 37.6969 12.6453 37.9822 12.6453C38.2356 12.6453 38.4382 12.5653 38.5902 12.4053C38.7449 12.2427 38.8222 11.984 38.8222 11.6293C38.8222 11.3547 38.7569 11.132 38.6262 10.9613C38.4982 10.7907 38.2516 10.7053 37.8862 10.7053H37.6782V9.93734H37.8862C38.1262 9.93734 38.3142 9.89601 38.4502 9.81334C38.5862 9.73067 38.6822 9.62401 38.7382 9.49334C38.7942 9.36001 38.8222 9.21867 38.8222 9.06934C38.8222 8.78667 38.7462 8.58134 38.5942 8.45334C38.4422 8.32534 38.2436 8.26134 37.9982 8.26134C37.7236 8.26134 37.4996 8.33601 37.3262 8.48534C37.1529 8.63467 37.0662 8.90401 37.0662 9.29334H36.0102C36.0102 8.94401 36.0782 8.62801 36.2142 8.34534C36.3502 8.06001 36.5622 7.83334 36.8502 7.66534C37.1409 7.49734 37.5169 7.41334 37.9782 7.41334C38.4209 7.41334 38.7822 7.48801 39.0622 7.63734C39.3422 7.78667 39.5489 7.98401 39.6822 8.22934C39.8156 8.47201 39.8822 8.73334 39.8822 9.01334C39.8822 9.23734 39.8409 9.44534 39.7582 9.63734C39.6756 9.82667 39.5542 9.98001 39.3942 10.0973C39.2369 10.2147 39.0409 10.2787 38.8062 10.2893Z" fill="white"/>
<defs>
<filter id="filter0_d" x="0" y="0.279236" width="52" height="50.1101" filterUnits="userSpaceOnUse" color-interpolation-filters="sRGB">
<feFlood flood-opacity="0" result="BackgroundImageFix"/>
<feColorMatrix in="SourceAlpha" type="matrix" values="0 0 0 0 0 0 0 0 0 0 0 0 0 0 0 0 0 0 127 0"/>
<feMorphology radius="2" operator="dilate" in="SourceAlpha" result="effect1_dropShadow"/>
<feOffset dx="2" dy="2"/>
<feGaussianBlur stdDeviation="4"/>
<feColorMatrix type="matrix" values="0 0 0 0 0 0 0 0 0 0 0 0 0 0 0 0 0 0 0.1 0"/>
<feBlend mode="normal" in2="BackgroundImageFix" result="effect1_dropShadow"/>
<feBlend mode="normal" in="SourceGraphic" in2="effect1_dropShadow" result="shape"/>
</filter>
<filter id="filter1_d" x="26" y="0.633575" width="24" height="23.055" filterUnits="userSpaceOnUse" color-interpolation-filters="sRGB">
<feFlood flood-opacity="0" result="BackgroundImageFix"/>
<feColorMatrix in="SourceAlpha" type="matrix" values="0 0 0 0 0 0 0 0 0 0 0 0 0 0 0 0 0 0 127 0"/>
<feOffset dy="2"/>
<feGaussianBlur stdDeviation="2"/>
<feColorMatrix type="matrix" values="0 0 0 0 0 0 0 0 0 0 0 0 0 0 0 0 0 0 0.25 0"/>
<feBlend mode="normal" in2="BackgroundImageFix" result="effect1_dropShadow"/>
<feBlend mode="normal" in="SourceGraphic" in2="effect1_dropShadow" result="shape"/>
</filter>
</defs>
</svg>
