<svg width="24" height="25" viewBox="0 0 24 25" fill="none" xmlns="http://www.w3.org/2000/svg">
<rect y="0.805359" width="24" height="24" rx="5" fill="#FB5792"/>
<path d="M7.36062 20.1562C9.00835 20.1562 9.98846 19.2401 10.4288 18.2315H10.5353V20H13.9728V5.45455H10.4998V10.9588H10.4288C10.0169 9.95739 9.06516 8.94886 7.34641 8.94886C5.06658 8.94886 2.99982 10.7031 2.99982 14.5526C2.99982 18.267 4.95295 20.1562 7.36062 20.1562ZM8.568 17.4503C7.28249 17.4503 6.56516 16.3068 6.56516 14.5455C6.56516 12.7912 7.27539 11.6619 8.568 11.6619C9.83931 11.6619 10.5779 12.7628 10.5779 14.5455C10.5779 16.3139 9.83221 17.4503 8.568 17.4503ZM17.6848 20.206C18.6578 20.206 19.5172 19.3821 19.5314 18.3594C19.5172 17.3509 18.6578 16.5341 17.6848 16.5341C16.6621 16.5341 15.824 17.3509 15.8382 18.3594C15.824 19.3821 16.6621 20.206 17.6848 20.206Z" fill="white"/>
</svg>
