<svg width="148" height="458" viewBox="0 0 148 458" fill="none" xmlns="http://www.w3.org/2000/svg">
<path d="M146.5 31.2471C158 -8.25292 65.4999 -8.25292 -6.10352e-05 19.7471V457.747C-6.10352e-05 450.247 6.49995 425.247 32.5 385.247C65.0001 335.247 38 238.747 59.5 177.747C81 116.747 135 70.7471 146.5 31.2471Z" fill="#FF8A48"/>
<path d="M146.5 31.2471C158 -8.25292 65.4999 -8.25292 -6.10352e-05 19.7471V457.747C-6.10352e-05 450.247 6.49995 425.247 32.5 385.247C65.0001 335.247 38 238.747 59.5 177.747C81 116.747 135 70.7471 146.5 31.2471Z" fill="url(#paint0_linear)"/>
<defs>
<linearGradient id="paint0_linear" x1="51.2336" y1="401.125" x2="174.935" y2="-186.067" gradientUnits="userSpaceOnUse">
<stop stop-color="#FF81AE"/>
<stop offset="1" stop-color="white" stop-opacity="0"/>
</linearGradient>
</defs>
</svg>
